<?xml version="1.0" standalone="no"?>
<!DOCTYPE svg PUBLIC "-//W3C//DTD SVG 20010904//EN"
 "http://www.w3.org/TR/2001/REC-SVG-20010904/DTD/svg10.dtd">
<svg version="1.0" xmlns="http://www.w3.org/2000/svg"
 width="512.000000pt" height="512.000000pt" viewBox="0 0 512.000000 512.000000"
 preserveAspectRatio="xMidYMid meet">

<g transform="translate(0.000000,512.000000) scale(0.100000,-0.100000)"
fill="#000000" stroke="none">
<path d="M1450 4481 l-1105 -638 0 -1283 0 -1283 1106 -638 1106 -639 1106
638 1106 637 0 1285 0 1285 -1101 635 c-606 349 -1104 636 -1107 637 -3 2
-503 -285 -1111 -636z m1465 86 l350 -202 3 -518 c1 -284 -1 -517 -4 -517 -4
0 -367 208 -806 462 -533 307 -795 464 -786 469 165 99 876 508 883 508 6 0
168 -90 360 -202z m1110 -641 l440 -254 2 -418 3 -419 -382 -220 c-210 -121
-412 -237 -450 -258 l-68 -39 0 931 c0 512 3 931 8 931 4 0 205 -114 447 -254z
m-2216 -106 c242 -140 441 -257 441 -260 -1 -4 -1269 -739 -1551 -898 l-59
-33 0 519 0 519 358 206 c196 114 360 206 363 204 4 -1 205 -117 448 -257z
m1134 -655 l327 -188 0 -417 0 -417 -349 -201 c-192 -111 -354 -203 -359 -204
-5 -2 -169 89 -365 202 l-357 205 0 415 0 415 358 206 357 207 30 -17 c17 -9
177 -102 358 -206z m-1407 -2222 c-2 -3 -205 111 -450 253 l-446 257 2 415 3
416 445 257 445 257 3 -926 c1 -509 0 -927 -2 -929z m2927 506 c-5 -4 -165
-98 -357 -208 l-349 -201 -448 257 c-246 142 -444 261 -441 265 4 4 365 214
802 466 l795 459 3 -515 c1 -284 -1 -519 -5 -523z m-1793 -129 c421 -243 769
-445 773 -449 11 -11 -879 -525 -896 -518 -6 3 -167 95 -357 205 l-345 200 -3
522 -2 522 32 -20 c18 -11 377 -219 798 -462z"/>
</g>
</svg>
